<svg width="192" height="192" viewBox="0 0 192 192" fill="none" xmlns="http://www.w3.org/2000/svg">
<path d="M97.2801 39.68L82.8801 111.36H66.5601L80.9151 39.68H97.2801Z" fill="#FF2950"/>
<path d="M146.56 39.68L132.16 111.36H115.84L130.195 39.68H146.56Z" fill="#192E51"/>
<path d="M121.28 84.48L97.28 39.68L91.84 66.56L115.84 111.36L121.28 84.48Z" fill="#192E51"/>
<path d="M97.2801 39.68L82.8801 111.36H66.5601L80.9151 39.68H97.2801Z" fill="#FF2950" fill-opacity="0.5" style="mix-blend-mode:multiply"/>
<path d="M64.9601 39.68L55.6801 85.76H72.0001L81.2801 39.68H64.9601Z" fill="#FF2950" fill-opacity="0.9"/>
<path d="M64.9601 39.68L55.6801 85.76H72.0001L81.2801 39.68H64.9601Z" fill="#FF2950" fill-opacity="0.15" style="mix-blend-mode:multiply"/>
<path d="M48.64 39.68L44.8 58.88H61.12L64.96 39.68H48.64Z" fill="#FF2950" fill-opacity="0.5"/>
<path d="M48.64 39.68L44.8 58.88H61.12L64.96 39.68H48.64Z" fill="#FF2950" fill-opacity="0.25" style="mix-blend-mode:multiply"/>
<path d="M47.1349 146.16L50.3549 130.06H53.4369L60.3599 141.721L59.1409 141.652L61.4409 130.06H65.1209L61.9009 146.16H58.8419L51.8959 134.499L53.1379 134.568L50.8149 146.16H47.1349ZM71.0691 136.546H78.8201L78.2451 139.444H70.4941L71.0691 136.546ZM70.0111 143.17H78.7971L78.1761 146.16H65.7101L68.9301 130.06H81.0971L80.4761 133.05H72.0351L70.0111 143.17ZM84.7802 146.16L82.7332 130.06H86.4132L88.2072 144.297H86.2752L93.8882 130.06H97.3382L99.0632 144.297H97.2232L104.79 130.06H108.493L99.9832 146.16H96.0042L94.3942 133.648H95.5212L88.7822 146.16H84.7802ZM106.385 146.16L106.868 143.745L119.104 131.739L119.426 133.096H109.237L109.858 130.06H123.382L122.899 132.475L110.686 144.481L110.364 143.124H121.082L120.461 146.16H106.385ZM123.402 146.16L126.622 130.06H128.922L125.702 146.16H123.402ZM128.084 146.16L138.618 130.06H140.895L144.966 146.16H142.689L139.101 131.302H140.021L130.568 146.16H128.084ZM131.994 142.135L133.006 140.295H142.045L142.367 142.135H131.994Z" fill="#192E51"/>
</svg>
