<svg width="512" height="512" viewBox="0 0 512 512" fill="none" xmlns="http://www.w3.org/2000/svg">
<path d="M259.413 105.813L221.013 296.96H177.493L215.773 105.813H259.413Z" fill="#FF2950"/>
<path d="M390.827 105.813L352.427 296.96H308.907L347.187 105.813H390.827Z" fill="#192E51"/>
<path d="M323.413 225.28L259.413 105.813L244.907 177.493L308.907 296.96L323.413 225.28Z" fill="#192E51"/>
<path d="M259.413 105.813L221.013 296.96H177.493L215.773 105.813H259.413Z" fill="#FF2950" fill-opacity="0.5" style="mix-blend-mode:multiply"/>
<path d="M173.227 105.813L148.48 228.693H192L216.747 105.813H173.227Z" fill="#FF2950" fill-opacity="0.9"/>
<path d="M173.227 105.813L148.48 228.693H192L216.747 105.813H173.227Z" fill="#FF2950" fill-opacity="0.15" style="mix-blend-mode:multiply"/>
<path d="M129.707 105.813L119.467 157.013H162.987L173.227 105.813H129.707Z" fill="#FF2950" fill-opacity="0.5"/>
<path d="M129.707 105.813L119.467 157.013H162.987L173.227 105.813H129.707Z" fill="#FF2950" fill-opacity="0.25" style="mix-blend-mode:multiply"/>
<path d="M128.545 389.093L136.945 347.093H144.985L163.045 377.513L159.865 377.333L165.865 347.093H175.465L167.065 389.093H159.085L140.965 358.673L144.205 358.853L138.145 389.093H128.545ZM190.982 364.013H211.202L209.702 371.573H189.482L190.982 364.013ZM188.222 381.293H211.142L209.522 389.093H177.002L185.402 347.093H217.142L215.522 354.893H193.502L188.222 381.293ZM226.75 389.093L221.41 347.093H231.01L235.69 384.233H230.65L250.51 347.093H259.51L264.01 384.233H259.21L278.95 347.093H288.61L266.41 389.093H256.03L251.83 356.453H254.77L237.19 389.093H226.75ZM283.109 389.093L284.369 382.793L316.289 351.473L317.129 355.013H290.549L292.169 347.093H327.449L326.189 353.393L294.329 384.713L293.489 381.173H321.449L319.829 389.093H283.109ZM327.503 389.093L335.903 347.093H341.903L333.503 389.093H327.503ZM339.717 389.093L367.197 347.093H373.137L383.757 389.093H377.817L368.457 350.333H370.857L346.197 389.093H339.717ZM349.917 378.593L352.557 373.793H376.137L376.977 378.593H349.917Z" fill="#192E51"/>
</svg>
