<svg width="747" height="195" viewBox="0 0 747 195" fill="none" xmlns="http://www.w3.org/2000/svg">
<path d="M82 42L59.5 154H34L56.4297 42H82Z" fill="#FF2950"/>
<path d="M159 42L136.5 154H111L133.43 42H159Z" fill="white"/>
<path d="M119.5 112L82 42L73.5 84L111 154L119.5 112Z" fill="white"/>
<path d="M82 42L59.5 154H34L56.4297 42H82Z" fill="#FF2950" fill-opacity="0.5" style="mix-blend-mode:multiply"/>
<path d="M31.5 42L17 114H42.5L57 42H31.5Z" fill="#FF2950" fill-opacity="0.9"/>
<path d="M31.5 42L17 114H42.5L57 42H31.5Z" fill="#FF2950" fill-opacity="0.15" style="mix-blend-mode:multiply"/>
<path d="M6 42L0 72H25.5L31.5 42H6Z" fill="#FF2950" fill-opacity="0.5"/>
<path d="M6 42L0 72H25.5L31.5 42H6Z" fill="#FF2950" fill-opacity="0.25" style="mix-blend-mode:multiply"/>
<path d="M200.92 88.12H254.84L250.84 108.28H196.92L200.92 88.12ZM193.56 134.2H254.68L250.36 155H163.64L186.04 43H270.68L266.36 63.8H207.64L193.56 134.2ZM296.301 155L282.061 43H307.661L320.141 142.04H306.701L359.661 43H383.661L395.661 142.04H382.861L435.501 43H461.261L402.061 155H374.381L363.181 67.96H371.021L324.141 155H296.301ZM446.592 155L449.953 138.2L535.073 54.68L537.313 64.12H466.433L470.753 43H564.833L561.473 59.8L476.513 143.32L474.273 133.88H548.833L544.513 155H446.592ZM564.976 155L587.376 43H603.376L580.976 155H564.976ZM597.547 155L670.828 43H686.668L714.988 155H699.148L674.188 51.64H680.588L614.828 155H597.547ZM624.748 127L631.788 114.2H694.668L696.908 127H624.748Z" fill="white"/>
</svg>
