<svg width="727" height="195" viewBox="0 0 727 195" fill="none" xmlns="http://www.w3.org/2000/svg">
<path d="M82 42L59.5 154H34L56.4297 42H82Z" fill="#FF2950"/>
<path d="M159 42L136.5 154H111L133.43 42H159Z" fill="#192E51"/>
<path d="M119.5 112L82 42L73.5 84L111 154L119.5 112Z" fill="#192E51"/>
<path d="M82 42L59.5 154H34L56.4297 42H82Z" fill="#FF2950" fill-opacity="0.5" style="mix-blend-mode:multiply"/>
<path d="M31.5 42L17 114H42.5L57 42H31.5Z" fill="#FF2950" fill-opacity="0.9"/>
<path d="M31.5 42L17 114H42.5L57 42H31.5Z" fill="#FF2950" fill-opacity="0.15" style="mix-blend-mode:multiply"/>
<path d="M6 42L0 72H25.5L31.5 42H6Z" fill="#FF2950" fill-opacity="0.5"/>
<path d="M6 42L0 72H25.5L31.5 42H6Z" fill="#FF2950" fill-opacity="0.25" style="mix-blend-mode:multiply"/>
<path d="M200.92 88.12H254.84L250.84 108.28H196.92L200.92 88.12ZM193.56 134.2H254.68L250.36 155H163.64L186.04 43H270.68L266.36 63.8H207.64L193.56 134.2ZM297.864 155L283.624 43H309.224L321.704 142.04H308.264L361.224 43H385.224L397.224 142.04H384.424L437.064 43H462.824L403.624 155H375.944L364.744 67.96H372.584L325.704 155H297.864ZM449.717 155L453.078 138.2L538.198 54.68L540.438 64.12H469.558L473.878 43H567.958L564.598 59.8L479.638 143.32L477.398 133.88H551.958L547.638 155H449.717ZM568.101 155L590.501 43H606.501L584.101 155H568.101ZM600.672 155L673.953 43H689.793L718.113 155H702.273L677.313 51.64H683.713L617.953 155H600.672ZM627.873 127L634.913 114.2H697.793L700.033 127H627.873Z" fill="#192E51"/>
</svg>
